<svg id="Layer_2" data-name="Layer 2" xmlns="http://www.w3.org/2000/svg" viewBox="0 0 1551.69 357.58"><defs><style>.cls-1{fill:#3c1777;}.cls-2{fill:#7c00ff;}</style></defs><title>logo-clean</title><polygon class="cls-1" points="491.68 0 491.68 312.88 402.29 223.49 402.29 0 491.68 0"/><polygon class="cls-2" points="491.68 357.58 357.58 357.58 0 0 134.1 0 491.68 357.58"/><polygon class="cls-1" points="89.4 134.1 89.4 357.58 0 357.58 0 44.7 89.4 134.1"/><polygon class="cls-1" points="980.56 357.58 622.98 357.58 533.58 268.19 533.58 0 622.98 89.39 622.98 268.19 891.16 268.19 980.56 357.58"/><polygon class="cls-2" points="1025.26 0 1025.26 357.58 935.87 268.19 935.87 89.39 667.68 89.39 578.27 0 1025.26 0"/><polygon class="cls-1" points="1551.68 357.58 1417.59 357.58 1328.19 268.19 1395.24 201.14 1551.68 357.58"/><polygon class="cls-2" points="1551.68 0 1194.09 357.58 1060.01 357.58 1417.59 0 1551.68 0"/><polygon class="cls-1" points="1283.5 89.39 1216.45 156.45 1060.01 0 1194.09 0 1283.5 89.39"/></svg>